<?xml version="1.0" encoding="UTF-8" standalone="no"?>
<!DOCTYPE svg PUBLIC "-//W3C//DTD SVG 1.1//EN"
 "http://www.w3.org/Graphics/SVG/1.1/DTD/svg11.dtd">
<!-- Generated by graphviz version 2.38.0 (20140413.2041)
 -->
<!-- Title: G Pages: 1 -->
<svg width="525pt" height="226pt"
 viewBox="0.00 0.00 525.00 226.00" xmlns="http://www.w3.org/2000/svg" xmlns:xlink="http://www.w3.org/1999/xlink">
<g id="graph0" class="graph" transform="scale(1 1) rotate(0) translate(4 222)">
<title>G</title>
<polygon fill="white" stroke="none" points="-4,4 -4,-222 521,-222 521,4 -4,4"/>
<g id="clust1" class="cluster"><title>cluster_0</title>
<polygon fill="none" stroke="black" points="8,-8 8,-210 509,-210 509,-8 8,-8"/>
</g>
<!-- 0 -->
<g id="node1" class="node"><title>0</title>
<polygon fill="none" stroke="black" points="323,-202 219,-202 219,-166 323,-166 323,-202"/>
<text text-anchor="middle" x="271" y="-180.3" font-family="Times,serif" font-size="14.00">Use of the thing</text>
</g>
<!-- 0_1 -->
<g id="node2" class="node"><title>0_1</title>
<polygon fill="none" stroke="black" points="262,-129 164,-129 164,-91 262,-91 262,-129"/>
<text text-anchor="middle" x="213" y="-113.8" font-family="Times,serif" font-size="14.00">Break in to the</text>
<text text-anchor="middle" x="213" y="-98.8" font-family="Times,serif" font-size="14.00">office</text>
</g>
<!-- 0&#45;&gt;0_1 -->
<g id="edge6" class="edge"><title>0&#45;&gt;0_1</title>
<path fill="none" stroke="black" d="M257.255,-165.937C248.344,-154.875 236.747,-140.479 227.66,-129.199"/>
</g>
<!-- 0_2 -->
<g id="node6" class="node"><title>0_2</title>
<polygon fill="none" stroke="black" points="389,-129 291,-129 291,-91 389,-91 389,-129"/>
<text text-anchor="middle" x="340" y="-113.8" font-family="Times,serif" font-size="14.00">Break in to the</text>
<text text-anchor="middle" x="340" y="-98.8" font-family="Times,serif" font-size="14.00">network.</text>
</g>
<!-- 0&#45;&gt;0_2 -->
<g id="edge8" class="edge"><title>0&#45;&gt;0_2</title>
<path fill="none" stroke="black" d="M287.352,-165.937C297.953,-154.875 311.749,-140.479 322.559,-129.199"/>
</g>
<!-- 0_1_1 -->
<g id="node3" class="node"><title>0_1_1</title>
<polygon fill="none" stroke="black" points="103.5,-53 16.5,-53 16.5,-17 103.5,-17 103.5,-53"/>
<text text-anchor="middle" x="60" y="-31.3" font-family="Times,serif" font-size="14.00">Steal the key</text>
</g>
<!-- 0_1&#45;&gt;0_1_1 -->
<g id="edge1" class="edge"><title>0_1&#45;&gt;0_1_1</title>
<path fill="none" stroke="black" d="M175.18,-90.9551C150.933,-79.3864 119.651,-64.4611 95.8083,-53.085"/>
</g>
<!-- 0_1_2 -->
<g id="node4" class="node"><title>0_1_2</title>
<polygon fill="none" stroke="black" points="235,-54 141,-54 141,-16 235,-16 235,-54"/>
<text text-anchor="middle" x="188" y="-38.8" font-family="Times,serif" font-size="14.00">Knock out the</text>
<text text-anchor="middle" x="188" y="-23.8" font-family="Times,serif" font-size="14.00">security guard</text>
</g>
<!-- 0_1&#45;&gt;0_1_2 -->
<g id="edge3" class="edge"><title>0_1&#45;&gt;0_1_2</title>
<path fill="none" stroke="black" d="M206.82,-90.9551C202.974,-79.7241 198.044,-65.3298 194.195,-54.0904"/>
</g>
<!-- 0_1_3 -->
<g id="node5" class="node"><title>0_1_3</title>
<polygon fill="none" stroke="black" points="365.5,-53 272.5,-53 272.5,-17 365.5,-17 365.5,-53"/>
<text text-anchor="middle" x="319" y="-31.3" font-family="Times,serif" font-size="14.00">Find the thing</text>
</g>
<!-- 0_1&#45;&gt;0_1_3 -->
<g id="edge5" class="edge"><title>0_1&#45;&gt;0_1_3</title>
<path fill="none" stroke="black" d="M239.202,-90.9551C256.001,-79.3864 277.673,-64.4611 294.192,-53.085"/>
</g>
<!-- 0_1_1&#45;&gt;0_1_2 -->
<g id="edge2" class="edge"><title>0_1_1&#45;&gt;0_1_2</title>
<path fill="none" stroke="black" d="M103.692,-35C115.57,-35 128.488,-35 140.562,-35"/>
<text text-anchor="middle" x="122.25" y="-41.8" font-family="Times,serif" font-size="14.00">and</text>
</g>
<!-- 0_1_2&#45;&gt;0_1_3 -->
<g id="edge4" class="edge"><title>0_1_2&#45;&gt;0_1_3</title>
<path fill="none" stroke="black" d="M235.294,-35C247.313,-35 260.221,-35 272.215,-35"/>
<text text-anchor="middle" x="253.75" y="-41.8" font-family="Times,serif" font-size="14.00">and</text>
</g>
<!-- 0_2_1 -->
<g id="node7" class="node"><title>0_2_1</title>
<polygon fill="none" stroke="black" points="500.5,-54 383.5,-54 383.5,-16 500.5,-16 500.5,-54"/>
<text text-anchor="middle" x="442" y="-38.8" font-family="Times,serif" font-size="14.00">Could threaten the</text>
<text text-anchor="middle" x="442" y="-23.8" font-family="Times,serif" font-size="14.00">guy</text>
</g>
<!-- 0_2&#45;&gt;0_2_1 -->
<g id="edge7" class="edge"><title>0_2&#45;&gt;0_2_1</title>
<path fill="none" stroke="black" d="M365.213,-90.9551C380.906,-79.7241 401.019,-65.3298 416.723,-54.0904"/>
</g>
</g>
</svg>
